<svg width="71" height="71" viewBox="0 0 71 71" fill="none" xmlns="http://www.w3.org/2000/svg">
<path d="M31.9844 0.797852C29.8311 1.01758 26.8721 1.66211 24.5869 2.42383C15.5635 5.41211 8.12208 11.9893 3.99122 20.6318C-2.30761 33.8008 0.446295 49.6797 10.8174 60.0361C19.167 68.4004 30.7686 71.96 42.2383 69.6895C58.4981 66.4814 70.3633 52.0674 70.3633 35.5C70.3633 21.3203 61.5742 8.38574 48.3906 3.12695C43.2344 1.07617 37.4482 0.255859 31.9844 0.797852ZM40.1143 3.21484C46.8232 4.15234 53.1221 7.22852 58.0733 12.0186C63.4346 17.2041 66.7158 23.6201 67.8145 31.0322C68.1514 33.4053 68.1514 37.5947 67.8145 39.9678C66.7744 46.9844 63.8008 53.0781 58.9375 58.1172C53.8106 63.4199 47.3799 66.7158 39.9678 67.8145C36.3643 68.3418 31.7207 68.1074 27.9121 67.2139C14.9336 64.123 5.1045 53.2979 3.18555 39.9678C2.84864 37.6094 2.84864 33.3906 3.18555 31.0322C4.18165 24.0889 7.19923 17.9219 12.0332 12.9121C17.7461 6.99414 25.1729 3.53711 33.4492 2.92188C34.8262 2.81934 38.4297 2.98047 40.1143 3.21484Z" fill="#666F36"/>
<path d="M31.7646 13.9082C24.1474 15.2705 17.8779 20.4268 14.9336 27.7217C13.9668 30.1387 13.4394 33.5078 13.5713 36.4375C13.8496 42.0625 15.9736 46.9111 19.8994 50.8076C23.166 54.0596 26.7256 55.9932 31.1054 56.8867C42.8828 59.2891 54.6015 51.3203 56.8281 39.3818C57.1943 37.4189 57.209 33.1123 56.8428 31.1055C55.6709 24.748 51.2471 19.0059 45.1826 15.9443C43.4394 15.0801 40.8174 14.2012 39.0303 13.9082C37.2871 13.6152 33.4053 13.6152 31.7646 13.9082ZM34.3281 21.5693V27.2529L33.7861 27.3555C33.4785 27.3994 32.8633 27.6045 32.4092 27.7949L31.5742 28.1318L28.3808 23.7373C26.6084 21.3203 25.1289 19.2549 25.0556 19.1523C24.8359 18.7715 28.3808 17.1016 30.5928 16.5303C31.164 16.3838 32.2187 16.1934 32.9365 16.0908C33.6689 15.9883 34.2695 15.9004 34.2988 15.8857C34.3135 15.8711 34.3281 18.4346 34.3281 21.5693ZM40.334 16.5303C42.6777 17.1162 46.1787 18.7568 45.9443 19.1523C45.8711 19.2549 44.3916 21.3203 42.6191 23.7373L39.4258 28.1318L38.5908 27.7949C38.1367 27.6045 37.5215 27.3994 37.2285 27.3555L36.6719 27.2529V21.5986V15.9297L37.8144 16.0469C38.4297 16.1201 39.5722 16.3398 40.334 16.5303ZM26.2715 24.748C28 27.1357 29.4648 29.1719 29.5381 29.2744C29.5967 29.4062 29.3916 29.8164 28.9521 30.417C28.5566 30.9297 28.1758 31.4717 28.1025 31.6182C27.956 31.8672 27.5752 31.7646 22.917 30.2412C20.1631 29.333 17.7314 28.542 17.541 28.4687L17.1894 28.3223L17.8633 26.9746C18.8447 25.0117 20.1484 23.1807 21.6133 21.7012C22.3164 20.998 22.9463 20.4121 23.0049 20.4121C23.0635 20.4121 24.5429 22.375 26.2715 24.748ZM49.3867 21.7012C50.8515 23.1807 52.1553 25.0117 53.1367 26.9746L53.8105 28.3223L53.459 28.4687C52.4775 28.835 43.0879 31.8525 43.0439 31.8086C43.0146 31.7939 42.6338 31.252 42.1797 30.6221C41.6523 29.8896 41.4033 29.4062 41.4619 29.2744C41.7842 28.7178 47.8926 20.4268 47.9951 20.4121C48.0537 20.4121 48.6836 20.998 49.3867 21.7012ZM38.0635 30.0068C39.748 30.8125 40.9931 32.4385 41.3594 34.2988C41.7695 36.335 41.2568 38.0928 39.8213 39.5869C37.126 42.4141 32.4531 42.0039 30.4023 38.752C29.6845 37.6094 29.4502 36.6719 29.5234 35.1484C29.5967 33.5225 30.0068 32.5117 31.0469 31.3838C32.4092 29.9482 33.581 29.4795 35.7197 29.5381C36.9795 29.582 37.3017 29.6406 38.0635 30.0068ZM24.8799 33.2148L27.2236 33.9766L27.2529 35.4561L27.2822 36.9355L22.5654 38.4736C17.043 40.2754 16.6328 40.4072 16.5303 40.3047C16.4863 40.2607 16.3545 39.7041 16.2226 39.0742C15.7978 36.9795 15.915 33.1855 16.4717 31.0908L16.6035 30.5488L19.5771 31.501C21.2031 32.0283 23.5908 32.8047 24.8799 33.2148ZM54.6748 31.3545C54.7627 31.75 54.8945 32.5117 54.9824 33.083C55.3486 35.7344 54.8945 40.334 54.2793 40.334C54.1328 40.334 51.7304 39.5869 48.9033 38.6787L43.7763 37.0234L43.7471 35.5293L43.7178 34.0498L46.0176 33.3027C47.2773 32.9072 49.6064 32.1455 51.1738 31.6182C52.7412 31.1055 54.1328 30.6807 54.2793 30.666C54.4404 30.666 54.5576 30.8711 54.6748 31.3545ZM28.8203 40.3779C29.3476 41.1103 29.5967 41.5937 29.5381 41.7256C29.2158 42.2822 23.1074 50.5732 23.0049 50.5879C22.9463 50.5879 22.3164 50.002 21.6133 49.2988C20.1484 47.8193 18.8447 45.9883 17.8633 44.0254C17.248 42.8096 17.2041 42.6631 17.4385 42.5752C18.4638 42.1797 27.6924 39.1914 27.8388 39.2061C27.9267 39.2207 28.3662 39.748 28.8203 40.3779ZM48.1416 40.7881C50.8662 41.667 53.2685 42.458 53.459 42.5312L53.8105 42.6777L53.1367 44.0254C52.3164 45.6514 51.584 46.7646 50.3388 48.2734C49.4746 49.3135 47.9951 50.6904 47.8926 50.5732C47.7607 50.4121 41.7549 42.165 41.5644 41.8721C41.3447 41.5352 41.374 41.4912 41.9453 40.7588C42.2822 40.334 42.6484 39.8066 42.7656 39.5723C42.8828 39.3525 43.0293 39.1621 43.0732 39.1621C43.1318 39.1621 45.417 39.8945 48.1416 40.7881ZM33.7861 43.6299L34.3281 43.7324V49.4014V55.0703L33.2734 54.9531C30.8564 54.6895 28.0732 53.7812 25.9346 52.5947C25.2461 52.1992 24.9824 51.9795 25.0556 51.8477C25.1289 51.7451 26.6084 49.6797 28.3808 47.2627L31.5888 42.8535L32.4092 43.1904C32.8633 43.3809 33.4785 43.5713 33.7861 43.6299ZM42.707 47.3652C44.4355 49.7383 45.8857 51.7598 45.9443 51.8623C46.0176 51.9795 45.7246 52.2285 45.0947 52.5801C42.8828 53.8105 40.2168 54.6748 37.8144 54.9531L36.6719 55.0703V49.4014V43.7471L37.2285 43.6445C37.5215 43.6006 38.1367 43.3955 38.5762 43.2197C39.0156 43.0293 39.4258 42.9121 39.4697 42.9561C39.5283 43 40.9785 44.9922 42.707 47.3652Z" fill="#666F36"/>
</svg>
