<svg width="90" height="70" viewBox="0 0 90 70" fill="none" xmlns="http://www.w3.org/2000/svg">
<path d="M57.7642 0.406303C57.5443 0.644444 56.9948 1.43215 56.5368 2.16489C55.5476 3.77694 53.4043 6.01182 51.7923 7.09262C49.4475 8.68635 46.7546 9.65724 43.7137 10.0419C42.7428 10.1518 35.8001 10.2251 25.2851 10.2251C9.21964 10.2251 8.34034 10.2434 7.27786 10.5732C3.57748 11.7273 1.17774 15.1895 1.45252 19.0181C1.6357 21.6377 2.97297 24.0008 5.0613 25.393C7.27786 26.8768 5.86732 26.7852 26.311 26.8951C44.2267 27.005 44.5564 27.005 46.0219 27.3897C50.4367 28.5804 54.247 30.6688 57.7275 33.8379C60.1639 36.0545 61.5745 36.7872 63.7544 36.9155C65.6046 37.0437 67.0151 36.7872 68.8287 36.0545C72.8221 34.4058 77.53 29.7895 79.7466 25.338C80.4061 24.0557 81.267 21.6926 81.267 21.2347C81.267 20.6851 80.8091 20.2454 80.2412 20.2638C79.9481 20.2821 77.0721 21.1064 73.848 22.1139C70.6239 23.1032 67.9677 23.9092 67.931 23.8725C67.9127 23.8542 67.1067 21.7109 66.1358 19.1097C64.8169 15.5192 64.4505 14.3468 64.6337 14.2369C64.7619 14.1453 66.7586 13.4492 69.0851 12.6798C75.4417 10.5549 76.1195 10.2801 76.2477 9.74883C76.3943 9.18095 76.0096 8.44821 74.7639 6.90944C71.4666 2.80605 66.5755 1.24896 61.7943 2.76941C60.1822 3.28234 60.3105 3.35561 59.7426 1.63366C59.2113 0.0216103 58.5336 -0.418041 57.7642 0.406303ZM62.1973 14.4018C64.3589 20.3187 66.2274 25.3747 66.3556 25.6311C66.4839 25.9059 66.7586 26.1624 66.9602 26.2173C67.1617 26.2723 69.8362 25.5395 72.8771 24.6053C75.918 23.6527 78.446 22.92 78.4826 22.9566C78.5192 22.9749 78.2078 23.6527 77.8231 24.4404C74.709 30.5955 68.4073 35.3217 63.8826 34.8821C62.2339 34.7355 61.1531 34.1493 59.0098 32.1892C55.0896 28.6354 50.7847 26.3822 45.5456 25.1365C44.2999 24.8434 42.523 24.8068 26.0362 24.7152L7.90069 24.6053L7.07635 24.1656C5.79404 23.4879 5.28112 23.0482 4.60333 22.059C2.40509 18.8349 3.52253 14.7315 7.11299 12.8447L8.08388 12.3318L26.4942 12.2402C44.7396 12.1303 44.9228 12.1303 46.4432 11.7273C49.4841 10.9212 51.8106 9.78547 54.1004 7.99024C55.3278 7.01935 57.2879 4.96766 57.7825 4.14331C57.9474 3.85022 58.1305 3.63039 58.1855 3.63039C58.2405 3.63039 60.0357 8.48484 62.1973 14.4018ZM68.0776 4.65624C69.8179 5.15084 71.8329 6.52474 73.042 8.06351C73.5182 8.64971 73.5732 8.8329 73.3717 8.96113C72.7855 9.3275 63.791 12.2402 63.6628 12.1119C63.5162 11.9654 61.1165 5.4989 61.1165 5.27907C61.1165 5.1142 63.5529 4.39978 64.4139 4.30818C65.3481 4.17995 66.9235 4.34482 68.0776 4.65624Z" fill="#502BB8"/>
<path d="M53.1479 12.3135C51.6824 12.9546 50.858 14.585 50.858 16.8199C50.858 22.7185 56.775 28.6721 60.2372 26.2357C63.1865 24.1657 62.3255 17.9556 58.5702 14.127C56.8666 12.3868 54.6683 11.654 53.1479 12.3135ZM56.0422 14.7315C56.4086 14.9697 56.72 15.2445 56.72 15.3361C56.72 15.4643 53.2211 17.1863 52.9647 17.1863C52.7998 17.1863 52.8731 16.2154 53.0563 15.5009C53.4593 14.0721 54.5584 13.779 56.0422 14.7315ZM59.193 18.7067L59.4678 19.3845L57.0681 20.5752C55.2728 21.4911 54.6134 21.7293 54.4302 21.5827C54.192 21.3812 53.3494 19.5677 53.4593 19.4761C53.4959 19.4578 54.595 18.8899 55.8957 18.2304L58.2771 17.0397L58.5885 17.5343C58.7534 17.8091 59.0282 18.322 59.193 18.7067ZM59.9441 22.5353C59.651 24.7519 58.6068 25.2831 56.7933 24.1107L55.8957 23.5428L57.9107 22.5719C59.0282 22.0407 59.9624 21.6011 59.9991 21.5827C60.0357 21.5827 59.9991 22.0041 59.9441 22.5353Z" fill="#502BB8"/>
<path d="M9.36621 14.7866C5.50097 17.0031 7.02142 22.7552 11.4729 22.7552C15.906 22.7552 17.4631 17.0215 13.6161 14.8049C12.2789 14.0355 10.6852 14.0172 9.36621 14.7866ZM12.572 16.5818C13.836 17.3146 14.0375 19.2014 12.9384 20.1539C12.4987 20.5753 12.2056 20.6669 11.4729 20.6669C10.2455 20.6669 9.47612 20.0257 9.32958 18.8533C9.07311 16.9848 10.9966 15.6476 12.572 16.5818Z" fill="#502BB8"/>
<path d="M22.6106 14.8049C21.1817 15.2262 20.0643 16.4902 19.8078 17.974C19.533 19.4578 20.5406 21.308 21.9878 21.9675C22.6839 22.2789 23.38 22.3156 31.9531 22.3156C40.6545 22.3156 41.2041 22.2972 41.8452 21.9675C43.2191 21.2531 44.0801 19.8975 44.0801 18.432C44.0801 16.8932 42.8527 15.2812 41.3506 14.8232C40.5263 14.5851 23.4166 14.5668 22.6106 14.8049ZM41.1674 17.0031C41.6987 17.2962 42.1017 18.2305 41.9734 18.835C41.9002 19.1281 41.6071 19.5861 41.2957 19.8425L40.7461 20.3188L31.7699 20.2639L22.7938 20.2089L22.3541 19.696C21.7313 18.9816 21.7496 17.9374 22.3908 17.2962L22.8854 16.82H31.8432C37.6319 16.82 40.9293 16.8932 41.1674 17.0031Z" fill="#502BB8"/>
<path d="M34.0964 36.2561C26.659 37.0621 19.7162 39.9565 13.7627 44.756L12.114 46.0749L7.55262 46.7344C4.62163 47.174 2.75313 47.5221 2.3318 47.7419C1.01285 48.4197 0.115235 50.6546 0.115235 53.2192C0.115235 54.9412 0.335059 55.106 2.77144 55.106H4.69491V57.0295V58.953H3.22941C1.87383 58.953 1.7456 58.9896 1.14108 59.5208C0.774707 59.8323 0.225147 60.6383 -0.10459 61.2978C-0.672469 62.4518 -0.709106 62.6167 -0.709106 64.5402C-0.709106 66.7018 -0.361051 68.2589 0.280103 69.0466L0.628158 69.4862H8.52351C15.3014 69.4862 16.4372 69.4496 16.6753 69.2114C16.8402 69.0649 17.0417 68.3871 17.1333 67.7093C17.3714 66.0606 17.866 64.9981 18.9835 63.8257C22.4824 60.1254 28.6191 61.5725 30.1579 66.4453C30.3594 67.0865 30.5243 67.8742 30.5243 68.1856C30.5243 68.5153 30.6342 68.9367 30.7807 69.1382C31.0372 69.4862 31.4036 69.4862 44.7762 69.4862C60.5486 69.4862 59.1564 69.6511 59.3396 67.7276C59.5411 65.3645 61.263 63.093 63.4979 62.2137C65.0184 61.6092 67.2716 61.6458 68.6638 62.287C70.862 63.3128 72.3458 65.3279 72.6389 67.6727C72.8588 69.6144 72.3092 69.4862 80.4977 69.4862C84.3995 69.4862 87.8068 69.4313 88.0816 69.3397C88.7777 69.1565 89.8219 68.1856 90.2432 67.3796C90.7195 66.427 90.9943 64.5768 90.866 63.1663C90.6828 61.3344 90.5912 61.2062 89.3822 60.8764C85.3887 59.759 82.7325 58.6049 81.8349 57.5791C81.5235 57.2127 81.267 56.7914 81.267 56.6082C81.267 56.4433 81.8532 55.7472 82.5493 55.0877C84.3446 53.4024 84.2896 53.0543 82.0181 51.9186C79.3436 50.563 75.515 49.5188 71.1917 48.9693L68.9019 48.6579L67.6196 47.5221C64.4322 44.6827 61.3729 42.6493 57.4344 40.7442C52.7631 38.491 48.6964 37.1904 44.0801 36.5126C41.5521 36.1462 36.3862 36.018 34.0964 36.2561ZM44.3549 38.6192C52.7998 40.0847 60.2555 43.6935 66.5388 49.354L68.0043 50.6912L70.4224 50.966C74.3792 51.4423 77.5667 52.2117 80.2412 53.3658L80.9556 53.6589L80.3877 54.2451C78.7757 55.9487 78.9039 57.7439 80.7175 59.3926C81.7433 60.3086 84.198 61.4809 86.726 62.2503L88.7777 62.8732V64.0456C88.7777 65.5477 88.4663 66.5735 87.8984 67.0315C87.4771 67.3612 87.0924 67.3796 81.0838 67.3796H74.7089L74.599 66.5919C74.1594 63.7158 71.1002 60.5833 68.0593 59.8872C66.0808 59.4293 63.736 59.7407 61.7759 60.7299C59.8158 61.7191 57.7092 64.5402 57.3611 66.6651L57.2329 67.3796H44.9228H32.5943L32.2645 66.1889C31.9348 64.9432 31.0189 63.2395 30.1945 62.3602C29.9197 62.0671 29.2053 61.5176 28.6191 61.1146C25.7431 59.2461 21.9511 59.1911 19.1484 60.9863C17.2432 62.1954 15.4297 64.7783 15.1915 66.6468L15.0816 67.3796L8.39528 67.3429L1.69064 67.288L1.54409 66.7384C1.4525 66.427 1.36091 65.4927 1.34259 64.6318C1.30595 63.2762 1.36091 62.9464 1.78224 62.1587L2.2402 61.2428L4.18198 61.1512C5.42765 61.0963 6.21536 60.968 6.41686 60.8032C6.67333 60.5833 6.70996 60.0887 6.70996 57.0112C6.70996 52.7063 6.85651 52.9078 4.01712 52.9078H2.13029L2.2402 52.0285C2.38675 50.9111 2.97295 49.6654 3.43092 49.5188C3.65074 49.4456 5.88562 49.0792 8.43192 48.7128L13.0665 48.035L14.8801 46.5512C20.7238 41.7884 26.7872 39.1871 34.188 38.2712C36.4046 37.9781 41.8269 38.1796 44.3549 38.6192Z" fill="#502BB8"/>
<path d="M32.0446 42.4661C27.3917 43.4004 21.4381 45.7635 18.3423 47.9068L17.06 48.7861L17.005 51.4789C16.9684 53.7321 17.005 54.2084 17.2431 54.4465C17.5179 54.703 18.5621 54.7396 26.6589 54.7396C35.2687 54.7396 35.8 54.7213 36.0748 54.4099C36.3495 54.1168 36.3862 53.4207 36.3862 48.3098C36.3862 44.0598 36.3312 42.4844 36.1664 42.3196C35.8549 42.0082 34.0231 42.0631 32.0446 42.4661ZM34.3711 48.5113V52.7246H26.6773H18.9834V51.3873C18.9834 49.8302 18.9834 49.8302 20.9069 48.7494C24.5523 46.7161 31.3485 44.3713 33.7849 44.3163L34.3711 44.298V48.5113Z" fill="#502BB8"/>
<path d="M38.1448 42.3928C37.8883 42.631 37.8517 43.437 37.8517 48.4014C37.8517 53.7138 37.87 54.1534 38.1814 54.4282C38.4928 54.7213 39.7019 54.7396 51.9021 54.7396C64.6153 54.7396 65.2931 54.7213 65.5679 54.4099C66.3189 53.5672 65.861 53.0177 62.5453 50.8378C55.401 46.1299 48.7147 43.3821 41.9734 42.3745C39.592 42.0265 38.5112 42.0265 38.1448 42.3928ZM42.6329 44.5728C46.8095 45.3605 50.7297 46.6977 54.8881 48.7861C56.9947 49.8485 60.9699 52.1567 61.3912 52.5597C61.4828 52.6513 57.3428 52.7246 50.7114 52.7246H39.8667V48.5113V44.298H40.4896C40.8376 44.298 41.7902 44.4262 42.6329 44.5728Z" fill="#502BB8"/>
<path d="M38.1631 57.4508C37.815 57.8355 37.7784 58.2751 38.0348 58.7881C38.218 59.0995 38.4379 59.1361 40.3247 59.1361C42.2115 59.1361 42.4313 59.0995 42.6145 58.7881C42.8893 58.2568 42.8343 57.7622 42.468 57.4325C41.955 56.9562 38.5844 56.9928 38.1631 57.4508Z" fill="#502BB8"/>
</svg>
