<svg width="89" height="63" viewBox="0 0 89 63" fill="none" xmlns="http://www.w3.org/2000/svg">
<path d="M39.9909 1.14971C38.7563 1.49737 37.7999 2.071 36.8956 2.94014L36.0784 3.73975L34.9481 3.70499C32.7744 3.61807 30.7399 4.81749 29.7835 6.78175C29.3662 7.6335 29.2966 7.98116 29.2966 9.2501C29.2966 10.4495 29.3836 10.8841 29.7313 11.5968C30.5312 13.2134 32.2354 14.4649 34.0264 14.7431C34.7568 14.8474 34.7742 14.8648 34.7742 15.5079C34.7742 16.1337 34.7568 16.1511 33.8699 16.3597C32.5136 16.6552 31.3137 17.2636 30.3921 18.1327C29.3488 19.1062 22.254 30.8222 22.254 31.5696C22.254 31.8304 22.4453 32.2128 22.6888 32.4562L23.1061 32.8907H34.0786H45.0511L45.4685 32.4562L45.9032 32.039V24.547V17.055L45.4685 16.6378C45.1207 16.2728 44.8772 16.2032 44.0773 16.2032H43.1209V15.4558V14.7083L44.0426 14.4128C45.9032 13.8218 47.6595 11.9966 48.3203 9.99757C49.7462 5.68663 46.6683 1.20186 42.1124 0.975885C41.3125 0.94112 40.4604 1.01065 39.9909 1.14971ZM43.0166 3.8962C44.0426 4.20909 45.4685 5.63448 45.7293 6.64268C45.9728 7.56397 45.8684 9.00675 45.4859 9.73682C45.1381 10.3974 44.2686 11.2665 43.6252 11.5968C43.3644 11.7532 42.6514 11.9271 42.0602 12.014C40.5126 12.2226 40.3387 12.4833 40.3387 14.6562C40.3387 16.5335 40.1648 17.1071 39.5214 17.4026C38.878 17.6982 38.4433 17.6286 37.9912 17.1593C37.5912 16.7769 37.5564 16.6204 37.5564 14.9864C37.5564 13.1612 37.3304 12.3616 36.7739 12.1357C36.6174 12.0835 35.974 12.0314 35.3654 12.0314C34.0264 12.0314 33.2613 11.7532 32.6353 11.0058C31.7137 9.91065 31.8006 8.36358 32.844 7.32061C33.6265 6.521 34.5133 6.31241 35.6436 6.64268C37.1043 7.05987 37.226 7.00772 38.5824 5.25206C39.591 3.93096 41.3473 3.40948 43.0166 3.8962ZM36.287 19.4364C37.1565 20.097 38.3042 20.4446 39.2953 20.323C40.1996 20.2187 41.3473 19.7146 41.7124 19.2626C41.8515 19.1062 42.2167 18.9845 42.5297 18.9845H43.1209V24.547V30.1095H34.6003H26.097L28.8793 25.4509C31.7485 20.6706 32.2354 20.0101 33.1222 19.5581C34.4438 18.8628 35.4871 18.8107 36.287 19.4364Z" fill="#2E5092"/>
<path d="M49.1204 12.4658C48.5987 12.9699 48.5639 13.7521 49.016 14.3084L49.3464 14.7256L55.1544 14.8298C61.6579 14.9341 62.0057 15.0037 64.1098 16.3595C66.1791 17.698 66.3008 17.8545 70.7698 25.6767C74.6997 32.5603 75.3257 33.4121 76.9603 34.2117C77.4646 34.455 79.2035 34.9939 80.8381 35.4111C82.6987 35.8804 84.0203 36.3324 84.3855 36.5758L84.9419 36.9756L83.1508 37.0625C81.5163 37.1494 81.3076 37.1841 81.012 37.5666C80.8381 37.7925 80.6816 38.1402 80.6816 38.3488C80.6816 38.54 81.0294 40.0871 81.4641 41.7558C82.0379 44.0677 82.3162 44.8674 82.6118 45.0933C82.9074 45.3367 83.3247 45.4062 84.6115 45.4062H86.2461V47.7703C86.2461 50.7254 86.0896 51.3164 84.9419 52.4463C83.8116 53.5935 83.2204 53.75 80.2295 53.75H77.8124L77.795 52.1334C77.7776 49.5259 76.856 47.3357 74.978 45.4584C73.7607 44.2416 71.7436 43.1465 70.109 42.8162C65.7791 41.9297 61.2927 44.1547 59.3799 48.1701C56.7716 53.5935 59.7973 60.1295 65.64 61.7634C66.9094 62.1285 69.7612 62.0763 70.9437 61.6765C73.2738 60.8943 75.291 59.3299 76.4213 57.4351L76.9429 56.566L80.3512 56.4965L83.7421 56.4443L85.0636 55.8011C86.646 55.0189 87.6198 54.0107 88.385 52.3941L88.9414 51.2295L88.9936 45.4062C89.0457 41.356 88.9936 39.2875 88.8545 38.6269C88.4023 36.5758 87.046 34.7853 85.2375 33.864C84.768 33.6207 83.0987 33.0992 81.551 32.7168C78.4732 31.9345 78.0211 31.7607 77.2559 31.0133C76.9777 30.7351 75.204 27.78 73.3086 24.4425C71.3958 21.105 69.5178 17.9066 69.1178 17.333C67.7789 15.4382 65.7791 13.839 63.6577 12.9699C61.6405 12.1703 60.4059 12.0312 54.7544 12.0312H49.5377L49.1204 12.4658ZM86.2461 41.2343V42.625H85.394H84.542L84.1942 41.2343L83.8464 39.8437H85.0462H86.2461V41.2343ZM71.0132 46.0668C72.5957 46.7968 73.6042 47.805 74.3867 49.3695C74.9954 50.6211 75.0301 50.7775 75.0301 52.3593C75.0301 53.9412 74.9954 54.0976 74.3867 55.3492C73.6042 56.931 72.5957 57.9045 70.9785 58.6693C69.9177 59.1734 69.6569 59.2256 68.1614 59.2256C66.666 59.2256 66.4051 59.1734 65.3444 58.6693C63.7272 57.9045 62.7186 56.931 61.9361 55.3492C61.3275 54.0976 61.2927 53.9412 61.2927 52.3767C61.2927 50.8644 61.3449 50.6037 61.8492 49.5433C62.5448 48.0658 63.5359 46.9881 64.8401 46.3101C66.1965 45.58 66.9616 45.4062 68.544 45.4758C69.6047 45.5279 70.1438 45.667 71.0132 46.0668Z" fill="#2E5092"/>
<path d="M66.7701 48.4135C65.918 48.6917 64.4573 50.1866 64.1965 51.0731C63.7096 52.7071 64.0574 54.0108 65.292 55.2276C67.0483 57.0006 69.2741 57.0006 71.0304 55.2276C72.7345 53.5415 72.7867 51.3686 71.1695 49.5782C70.0392 48.3266 68.422 47.8921 66.7701 48.4135ZM69.1176 51.4034C69.9871 52.2551 69.3784 53.7501 68.1612 53.7501C67.4482 53.7501 66.7701 53.0721 66.7701 52.3594C66.7701 51.6467 67.4482 50.9688 68.1612 50.9688C68.4916 50.9688 68.8568 51.1253 69.1176 51.4034Z" fill="#2E5092"/>
<path d="M27.8708 14.7777C25.9928 16.2727 25.7493 16.6203 21.2977 24.46C19.5066 27.6063 17.8199 30.4223 17.5764 30.683C16.8287 31.5 15.994 31.8129 13.1944 32.2822C8.81233 33.0123 7.64726 33.3774 5.76923 34.5768C2.83048 36.4367 0.726394 39.6699 0.169943 43.1465C0.0482191 43.9461 -0.0213373 45.7539 0.03083 47.8399L0.0829973 51.2295L0.639449 52.3941C1.40457 54.0107 2.37836 55.019 3.96077 55.8012L5.28234 56.4443L8.6906 56.4965L12.0989 56.566L12.5858 57.4352C13.6117 59.2604 15.6984 60.877 18.0807 61.6766C19.4197 62.1285 22.3237 62.1285 23.6452 61.6766C26.0101 60.877 27.6795 59.6254 28.862 57.7654L29.6445 56.5486H34.9655L40.304 56.5313L40.4257 57.3482C40.6865 59.1387 41.6777 60.5293 43.3297 61.4158L44.4252 62.0068H49.3811C54.3022 62.0068 54.337 62.0068 55.2064 61.5723C58.3017 60.0426 59.3451 56.3053 57.467 53.4545C56.841 52.5158 55.7977 51.6988 54.7543 51.3164C54.2848 51.1426 54.0762 50.934 53.9023 50.4647C52.9111 47.7008 49.7463 46.1537 46.9988 47.075C45.0338 47.7529 43.6775 49.2652 43.2254 51.3164C43.1732 51.5598 42.8602 51.9248 42.5298 52.1508C42.1994 52.3768 41.7473 52.8287 41.5212 53.159L41.1213 53.75H35.8176H30.5139L30.5661 52.794C30.653 51.5424 30.3226 49.5955 29.9053 48.9176C29.3315 47.9789 28.1838 47.9963 27.5578 48.9524C27.2796 49.3695 27.2796 49.4738 27.5578 50.569C28.3925 53.8543 26.897 57.0701 23.8539 58.5824C22.6019 59.1908 22.4454 59.2256 20.863 59.2256C19.2806 59.2256 19.1241 59.1908 17.872 58.5824C16.2896 57.8002 15.3158 56.792 14.5507 55.1754C14.0464 54.115 13.9943 53.8543 13.9943 52.3594C13.9943 50.8645 14.0464 50.6037 14.5507 49.5434C15.2811 48.0137 16.2549 46.9707 17.7329 46.2059C19.5066 45.2672 19.924 44.4502 19.0371 43.5811C18.4633 42.99 17.8373 43.0248 16.3418 43.7897C13.1596 45.3715 10.986 49.0566 11.1599 52.568L11.212 53.75H8.79494C5.80401 53.75 5.21278 53.5936 4.08249 52.4463C2.9522 51.3164 2.77831 50.7254 2.77831 47.8051V45.4584L4.36072 45.3715C5.71707 45.2846 6.09963 45.1803 7.19514 44.6414C9.40355 43.5637 10.8468 41.4951 11.0729 39.0963C11.1599 38.0359 11.1425 37.9316 10.7251 37.5145C10.3078 37.0973 10.1687 37.0625 8.65582 37.0625C7.14297 37.0625 7.07342 37.0451 7.43859 36.7844C8.34282 36.1586 10.047 35.6545 12.9683 35.1504C14.6898 34.8723 16.3592 34.5594 16.707 34.4551C17.7329 34.1596 19.3675 33.0123 20.0109 32.091C20.3587 31.6217 22.1324 28.5971 23.9756 25.3813C27.4534 19.2799 28.3925 17.8719 29.5401 16.9854C30.34 16.377 30.6704 15.7512 30.4965 15.0906C30.2183 13.9608 29.088 13.8217 27.8708 14.7777ZM7.99504 40.1219C7.99504 40.2609 7.5777 40.7998 7.0908 41.2865C6.08224 42.2774 5.28234 42.625 3.92599 42.625C3.02176 42.625 3.02176 42.6424 3.5956 41.2344C4.15205 39.8438 4.15205 39.8438 6.16918 39.8438C7.71681 39.8438 7.99504 39.8785 7.99504 40.1219ZM50.2158 50.0475C50.9461 50.6037 51.2939 51.1774 51.4504 52.1508C51.6243 53.3154 51.9025 53.5936 53.0676 53.7674C54.7022 54.0281 55.5542 54.9668 55.5542 56.5313C55.5542 57.6264 55.276 58.1826 54.3544 58.8606C53.9023 59.2082 53.6588 59.2256 49.3811 59.2256C45.1034 59.2256 44.8599 59.2082 44.4078 58.8606C42.7385 57.6264 42.7211 55.384 44.3556 54.3236C45.7294 53.4371 45.9033 53.2285 45.9033 52.5332C45.9033 51.299 46.5119 50.2908 47.5552 49.8215C48.2508 49.4912 49.6245 49.6129 50.2158 50.0475Z" fill="#2E5092"/>
<path d="M75.1169 15.0386C74.2648 15.3168 72.8041 16.8117 72.5433 17.6982C72.0564 19.3322 72.4042 20.6359 73.6388 21.8527C74.5256 22.7566 75.4125 23.1564 76.508 23.1564C78.6642 23.1564 80.6814 21.14 80.6814 18.9845C80.6814 17.8894 80.2814 17.0029 79.3772 16.1164C78.16 14.8822 76.7341 14.5345 75.1169 15.0386ZM77.4644 18.0285C77.7426 18.2892 77.8991 18.6543 77.8991 18.9845C77.8991 19.3148 77.7426 19.6799 77.4644 19.9406C77.2036 20.2187 76.8384 20.3752 76.508 20.3752C76.1776 20.3752 75.8124 20.2187 75.5516 19.9406C75.2734 19.6799 75.1169 19.3148 75.1169 18.9845C75.1169 18.6543 75.2734 18.2892 75.5516 18.0285C75.8124 17.7504 76.1776 17.5939 76.508 17.5939C76.8384 17.5939 77.2036 17.7504 77.4644 18.0285Z" fill="#2E5092"/>
<path d="M49.1202 16.6205L48.6854 17.055V24.547V32.039L49.1202 32.4562C49.381 32.7343 49.7462 32.8908 50.0766 32.8908C50.4069 32.8908 50.7721 32.7343 51.033 32.4562L51.4677 32.039V25.5031V18.9671L56.041 19.0193C60.3187 19.0714 60.6317 19.0888 61.2925 19.4539C61.6751 19.6451 62.1968 20.0449 62.4576 20.323C62.701 20.5837 64.1617 22.8957 65.7094 25.4509L68.4916 30.1095H66.2658H64.04L63.9531 28.6667C63.8313 26.9632 63.3618 25.8333 62.3359 24.7904C61.1882 23.6431 60.1622 23.2433 58.4233 23.2433C56.6844 23.2607 55.6411 23.6605 54.5108 24.8078C53.3805 25.9376 52.9631 26.9806 52.9631 28.7189C52.9631 29.9878 53.0327 30.3181 53.4326 31.1177C53.7109 31.6218 54.2847 32.4041 54.7368 32.8212L55.5541 33.6035L55.6585 35.2027C55.815 37.532 56.5105 38.6966 58.2494 39.4789C59.8144 40.1916 61.3795 39.8613 62.6836 38.5402C63.7618 37.4798 63.9878 36.7845 63.9878 34.5595V32.8908H67.7265C71.4825 32.8908 71.4825 32.8908 71.8999 32.4562C72.1433 32.2302 72.3346 31.8304 72.3346 31.5871C72.3346 31.0308 65.4833 19.506 64.4747 18.3761C64.04 17.872 63.3097 17.3679 62.4576 16.9507L61.136 16.2902L55.3454 16.238L49.5549 16.1859L49.1202 16.6205ZM59.9536 26.407C60.197 26.5808 60.5622 26.9632 60.7535 27.224C61.1012 27.6759 61.1186 27.9714 61.1708 31.9521L61.223 36.1935L60.7882 36.6281C60.2492 37.1669 59.5014 37.2017 58.9798 36.715C58.5277 36.2978 58.4581 36.0197 58.3712 34.2814C58.2842 32.7343 58.0755 32.2476 56.7887 30.9439C55.7802 29.8835 55.502 29.1882 55.7106 28.1626C55.8497 27.4326 56.5279 26.5808 57.2409 26.2158C57.9712 25.8507 59.3276 25.9376 59.9536 26.407Z" fill="#2E5092"/>
<path d="M5.56047 23.3822C4.70841 23.6604 3.24772 25.1553 2.98689 26.0418C2.49999 27.6758 2.84777 28.9795 4.0824 30.1963C5.8387 31.9693 8.0645 31.9693 9.8208 30.1963C11.5945 28.4406 11.5945 26.2156 9.8208 24.46C8.60357 23.2258 7.17766 22.8781 5.56047 23.3822ZM7.908 26.3721C8.77746 27.2238 8.16884 28.7188 6.9516 28.7188C6.23865 28.7188 5.56047 28.0408 5.56047 27.3281C5.56047 26.6154 6.23865 25.9375 6.9516 25.9375C7.28199 25.9375 7.64716 26.094 7.908 26.3721Z" fill="#2E5092"/>
<path d="M30.6008 34.4378C29.9574 34.6464 29.001 35.1505 28.6358 35.4634C28.3924 35.6719 27.9055 35.7415 26.6361 35.7589C24.6711 35.7762 23.6799 36.1587 22.5148 37.3233C21.3672 38.4532 20.9498 39.4962 20.9498 41.2344C20.9498 42.9727 21.3672 44.0157 22.5148 45.1456C23.6451 46.2755 24.6885 46.6926 26.4274 46.6926C27.9402 46.6926 28.914 46.3798 29.7835 45.6149C30.0269 45.4063 30.5138 45.3368 31.7832 45.3194C33.1918 45.302 33.6091 45.2325 34.3394 44.8848C35.4523 44.346 36.4957 43.303 37.0347 42.1905C37.6434 40.9389 37.6434 38.7487 37.0347 37.4971C36.4957 36.3846 35.4349 35.3417 34.3568 34.8202C33.4178 34.3856 31.3833 34.177 30.6008 34.4378ZM33.383 37.4276C33.7482 37.6362 34.2003 38.0882 34.409 38.4532C35.6958 40.7477 33.4004 43.3725 30.9486 42.3817C29.8183 41.9298 29.4705 42.0167 28.5315 42.9553C27.5751 43.894 26.8969 44.1374 25.784 43.9288C24.9319 43.7723 23.8886 42.7294 23.7321 41.8776C23.5408 40.8346 23.7843 40.0177 24.4972 39.305C25.2623 38.5227 26.1666 38.2968 27.2099 38.6096C28.7923 39.0964 28.9662 39.079 29.6792 38.2794C30.7921 37.0278 32.131 36.7323 33.383 37.4276Z" fill="#2E5092"/>
<path d="M40.7734 34.7157C40.4951 34.9765 40.3386 35.3415 40.3386 35.6718C40.3386 36.002 40.4951 36.3671 40.7734 36.6278C41.1733 37.045 41.3124 37.0624 43.1209 37.0624C44.9293 37.0624 45.0685 37.045 45.4684 36.6278C45.7466 36.3671 45.9031 36.002 45.9031 35.6718C45.9031 35.3415 45.7466 34.9765 45.4684 34.7157C45.0685 34.2985 44.9293 34.2811 43.1209 34.2811C41.3124 34.2811 41.1733 34.2985 40.7734 34.7157Z" fill="#2E5092"/>
<path d="M67.2049 34.7157C66.9266 34.9765 66.7701 35.3415 66.7701 35.6718C66.7701 36.002 66.9266 36.3671 67.2049 36.6278C67.6048 37.045 67.7439 37.0624 69.5524 37.0624C71.3609 37.0624 71.5 37.045 71.8999 36.6278C72.1782 36.3671 72.3347 36.002 72.3347 35.6718C72.3347 35.3415 72.1782 34.9765 71.8999 34.7157C71.5 34.2985 71.3609 34.2811 69.5524 34.2811C67.7439 34.2811 67.6048 34.2985 67.2049 34.7157Z" fill="#2E5092"/>
<path d="M19.4717 48.4135C18.6197 48.6917 17.159 50.1866 16.8981 51.0731C16.4112 52.7071 16.759 54.0108 17.9937 55.2276C19.75 57.0007 21.9758 57.0007 23.7321 55.2276C25.5057 53.4719 25.5057 51.2469 23.7321 49.4913C22.5148 48.2571 21.0889 47.9094 19.4717 48.4135ZM21.8193 51.4034C22.0975 51.6641 22.254 52.0292 22.254 52.3594C22.254 52.6897 22.0975 53.0548 21.8193 53.3155C21.5584 53.5936 21.1932 53.7501 20.8629 53.7501C20.5325 53.7501 20.1673 53.5936 19.9065 53.3155C19.6282 53.0548 19.4717 52.6897 19.4717 52.3594C19.4717 52.0292 19.6282 51.6641 19.9065 51.4034C20.1673 51.1253 20.5325 50.9688 20.8629 50.9688C21.1932 50.9688 21.5584 51.1253 21.8193 51.4034Z" fill="#2E5092"/>
</svg>
