<svg width="73" height="63" viewBox="0 0 73 63" fill="none" xmlns="http://www.w3.org/2000/svg">
<path d="M15.9186 0.889194C13.8637 1.24337 12.0114 2.24686 10.4051 3.88492C9.10275 5.21308 8.35025 6.46745 7.77141 8.22356C7.42411 9.30085 7.39517 9.55172 7.33728 13.2853L7.2794 17.2107L6.00595 17.2845C3.67611 17.4321 1.983 18.5537 0.970025 20.6197C0.463538 21.6822 0.434596 21.815 0.434596 23.1432C0.434596 24.4271 0.478009 24.6484 0.897669 25.5486C1.51992 26.9063 2.35924 27.777 3.6327 28.4115C4.54437 28.869 4.86273 28.9575 5.99147 29.0313L7.30834 29.1051V30.2267V31.363L6.30984 31.5105C3.54587 31.9533 1.28839 34.0488 0.579306 36.8084C0.289886 37.9447 0.260944 49.2488 0.535893 50.2228C0.76743 51.0344 1.96853 52.2593 2.76443 52.4954C3.11174 52.5987 4.21154 52.6725 5.32581 52.6725H7.2794L7.32281 55.1517L7.38069 57.6309L7.91612 58.7525C8.56732 60.0954 9.40664 60.9218 10.7524 61.5711L11.722 62.0434H17.7275H23.733L24.7025 61.5711C26.0483 60.9218 26.8877 60.0954 27.5389 58.7525L28.0743 57.6309L28.1322 55.1517L28.1756 52.6725H36.2504H44.3253L44.3687 55.1517L44.4266 57.6309L44.962 58.7525C45.6132 60.0954 46.4525 60.9218 47.7983 61.5711L48.7679 62.0434H54.7733H60.7788L61.7484 61.5711C63.0942 60.9218 63.9335 60.0954 64.5847 58.7525L65.1201 57.6309L65.178 55.1517L65.2214 52.6725H67.204C69.6785 52.6725 70.2863 52.4954 71.169 51.4919C71.5163 51.1082 71.8781 50.5179 71.9649 50.1933C72.182 49.4554 72.2109 38.3284 71.9939 37.1626C71.4585 34.3144 69.0707 31.9828 66.2199 31.5253L65.1925 31.363V30.2267V29.1051L66.5094 29.0313C67.6381 28.9575 67.9565 28.869 68.8681 28.4115C70.1416 27.777 70.9809 26.9063 71.6032 25.5486C72.0228 24.6484 72.0662 24.4271 72.0662 23.1579C72.0662 21.8888 72.0228 21.6674 71.6032 20.7673C70.9809 19.4096 70.1416 18.5389 68.8681 17.9043C67.9709 17.4469 67.6381 17.3583 66.5238 17.2845L65.2214 17.2107L65.1636 13.2853C65.1057 9.52221 65.0912 9.3156 64.715 8.17929C64.1651 6.4822 63.3981 5.24259 62.0812 3.89968C60.7644 2.55677 59.5633 1.78939 57.8846 1.1991L56.7269 0.800652L36.6845 0.785896C25.6576 0.771137 16.3238 0.815411 15.9186 0.889194ZM35.0927 4.26861V5.4492H33.1247C30.6646 5.4492 30.1726 5.58201 29.232 6.55599C28.2045 7.589 27.9151 8.6958 28.3203 10.083C28.5518 10.8946 29.7529 12.1195 30.5488 12.3556C31.3881 12.6065 41.1127 12.6065 41.952 12.3556C42.7479 12.1195 43.949 10.8946 44.1805 10.083C44.5568 8.76958 44.3108 7.67754 43.3846 6.62978C42.5019 5.62628 41.9086 5.4492 39.4051 5.4492H37.4081V4.26861V3.07327L46.93 3.11755L56.4375 3.16182L57.3926 3.54551C58.7818 4.09153 59.5343 4.57851 60.4749 5.53774C61.4156 6.49696 61.8931 7.26434 62.4285 8.68104L62.8048 9.65502L62.8482 20.5311L62.8916 31.422H61.1406H59.4041V27.6884C59.4041 22.5529 59.1147 20.9296 57.682 18.0372C57.1321 16.9008 57.0887 16.7385 57.0887 15.617C57.0887 13.9494 56.8861 13.3443 56.0034 12.4589C55.0194 11.4407 54.6431 11.3521 51.3003 11.3521C47.9575 11.3521 47.5812 11.4407 46.5972 12.4589C45.7145 13.3443 45.5119 13.9494 45.5119 15.617C45.5119 16.7385 45.4685 16.9008 44.9186 18.0372C43.4859 20.9296 43.1965 22.5529 43.1965 27.6884V31.422H41.46H39.7235V27.0686V22.7005L39.3617 22.3463C39.0144 21.9773 38.9854 21.9773 36.2504 21.9773C33.5154 21.9773 33.4865 21.9773 33.1391 22.3463L32.7774 22.7005V27.0686V31.422H32.1406H31.5184L31.4171 30.6546C31.2724 29.5773 30.5633 27.777 29.8832 26.7882C29.3477 26.0061 29.3043 25.8733 29.3043 24.9583C29.3043 22.7152 28.6965 20.2803 27.5823 18.0372C27.0324 16.9008 26.989 16.7385 26.989 15.617C26.989 13.9494 26.7864 13.3443 25.9036 12.4589C24.9196 11.4407 24.5433 11.3521 21.2005 11.3521C17.8577 11.3521 17.4815 11.4407 16.4974 12.4589C15.6147 13.3443 15.4121 13.9494 15.4121 15.617C15.4121 16.7385 15.3687 16.9008 14.8188 18.0372C13.7045 20.2655 13.0968 22.7005 13.0968 24.9288C13.0968 25.8142 13.0389 25.9766 12.4456 26.9063C11.6931 28.0869 11.2445 29.2232 11.0274 30.4923L10.8682 31.422H10.246H9.62371V21.0476C9.62371 14.3331 9.68159 10.3634 9.78289 9.78783C10.0289 8.34162 10.9116 6.68881 12.0114 5.56725C13.0678 4.47522 14.7899 3.50124 16.0633 3.26512C16.4685 3.17657 20.9111 3.11755 25.947 3.10279L35.0927 3.08803V4.26861ZM41.6771 8.17929C41.9086 8.40065 42.0388 8.71055 42.0388 8.99094C42.0388 9.27133 41.9086 9.58123 41.6771 9.80259L41.3298 10.1715H36.2504H31.1711L30.8238 9.80259C30.5922 9.58123 30.462 9.27133 30.462 8.99094C30.462 8.71055 30.5922 8.40065 30.8238 8.17929L31.1711 7.81036H36.2504H41.3298L41.6771 8.17929ZM24.3118 14.0822C24.6446 14.4216 24.6736 14.5397 24.6736 16.0154C24.6736 17.5206 24.6881 17.624 25.1222 18.3323C25.3682 18.7307 25.73 19.4391 25.9181 19.8966C26.5259 21.2838 27.0758 23.7482 26.7429 23.5711C24.3697 22.3315 23.3278 22.0511 21.0558 22.0659C19.4785 22.0659 19.1022 22.1249 18.0893 22.4791C17.4525 22.7005 16.6422 23.0399 16.2949 23.2465C15.9475 23.4383 15.6292 23.5711 15.5858 23.5269C15.4411 23.3793 15.8752 21.4461 16.2949 20.354C16.5409 19.749 16.9605 18.8783 17.2355 18.4208C17.713 17.6092 17.7275 17.5502 17.7275 16.0154C17.7275 14.5397 17.7564 14.4216 18.0893 14.0822C18.4366 13.7133 18.4655 13.7133 21.2005 13.7133C23.9356 13.7133 23.9645 13.7133 24.3118 14.0822ZM54.4116 14.0822C54.7444 14.4216 54.7733 14.5397 54.7733 16.0154C54.7733 17.5502 54.7878 17.6092 55.2654 18.4208C56.7269 20.8706 57.0887 22.7005 57.0887 27.7474V31.422H51.3003H45.5119V27.7474C45.5119 22.7005 45.8737 20.8706 47.3352 18.4208C47.8128 17.6092 47.8272 17.5502 47.8272 16.0154C47.8272 14.5397 47.8562 14.4216 48.189 14.0822C48.5363 13.7133 48.5653 13.7133 51.3003 13.7133C54.0353 13.7133 54.0643 13.7133 54.4116 14.0822ZM7.30834 23.1579V26.6997H6.49796C5.23898 26.6997 4.57331 26.434 3.76293 25.5929C2.28689 24.1024 2.28689 22.2135 3.76293 20.723C4.58778 19.8671 5.12321 19.6457 6.41113 19.6309L7.30834 19.6162V23.1579ZM67.421 19.7933C68.2169 20.0294 69.418 21.2542 69.6496 22.0659C70.0548 23.4531 69.7653 24.5599 68.7379 25.5929C67.9275 26.434 67.2618 26.6997 66.0029 26.6997H65.1925V23.1579V19.6162H66.0029C66.4515 19.6162 67.0882 19.69 67.421 19.7933ZM23.8198 24.8107C25.6866 25.5043 26.9455 26.5373 28.0019 28.2049C28.5229 29.0166 29.1596 30.6841 29.1596 31.2154C29.1596 31.3777 28.8991 31.422 28.0019 31.422C27.1192 31.422 26.8442 31.3777 26.8442 31.2154C26.8442 31.1121 26.6127 30.5513 26.3378 29.9906C25.7155 28.7214 24.8472 27.8655 23.5448 27.2457C22.6621 26.8177 22.445 26.7735 21.2005 26.7735C19.956 26.7735 19.739 26.8177 18.8562 27.2457C17.5538 27.8655 16.6856 28.7214 16.0633 29.9906C15.7884 30.5513 15.5568 31.1121 15.5568 31.2154C15.5568 31.3777 15.2819 31.422 14.3991 31.422C13.0533 31.422 13.0533 31.422 13.5309 30.0348C14.5004 27.1424 16.9171 25.0173 19.8981 24.4271C20.7664 24.2647 22.8792 24.4713 23.8198 24.8107ZM37.4081 27.8803V31.422H36.2504H35.0927V27.8803V24.3385H36.2504H37.4081V27.8803ZM22.228 29.2379C23.0962 29.4888 24.3842 30.7579 24.3842 31.3482C24.3842 31.3925 22.9515 31.422 21.2005 31.422C19.4495 31.422 18.0169 31.3777 18.0169 31.3039C18.0169 31.0531 18.6102 30.2414 19.0878 29.8577C20.0139 29.0904 21.0992 28.8838 22.228 29.2379ZM16.5698 36.9707C16.5698 39.0515 16.5119 40.3797 16.3962 40.7781C16.1646 41.5898 14.9635 42.8146 14.1676 43.0507C13.748 43.1688 11.968 43.2278 8.10425 43.2278H2.64866L2.70655 40.2321C2.74996 37.4282 2.7789 37.2069 3.11174 36.5133C3.71952 35.2441 4.92062 34.2406 6.22301 33.916C6.46902 33.857 8.88568 33.8127 11.6207 33.7979L16.5698 33.7832V36.9707ZM53.6446 37.443L53.688 41.1028L54.2234 42.2243C54.8746 43.5672 55.714 44.3937 57.0598 45.043L58.0293 45.5152L63.9335 45.5595L69.8232 45.6038V47.596C69.8232 49.5144 69.8088 49.603 69.4614 49.9424L69.1141 50.3113H36.2504H3.38669L3.03938 49.9424C2.69208 49.603 2.67761 49.5144 2.67761 47.596V45.6038L8.58179 45.5595L14.4715 45.5152L15.4411 45.043C16.7869 44.3937 17.6262 43.5672 18.2774 42.2243L18.8128 41.1028L18.8562 37.443L18.9141 33.7832H36.2504H53.5867L53.6446 37.443ZM67.0737 34.1964C68.1156 34.7129 68.7234 35.3032 69.2589 36.3214L69.7509 37.2511L69.7943 40.2321L69.8522 43.2278H64.3966C60.5328 43.2278 58.7529 43.1688 58.3332 43.0507C57.5373 42.8146 56.3362 41.5898 56.1047 40.7781C55.9889 40.3797 55.931 39.0515 55.931 36.9707V33.7684L61.184 33.8127C66.2923 33.857 66.437 33.8717 67.0737 34.1964ZM25.8313 54.6795C25.8313 55.8305 25.7589 56.9521 25.6576 57.3063C25.4261 58.1179 24.225 59.3428 23.4291 59.5789C22.5898 59.8298 12.8652 59.8298 12.0259 59.5789C11.23 59.3428 10.0289 58.1179 9.79736 57.3063C9.69606 56.9521 9.62371 55.8305 9.62371 54.6795V52.6725H17.7275H25.8313V54.6795ZM62.8771 54.6795C62.8771 55.8305 62.8048 56.9521 62.7035 57.3063C62.4719 58.1179 61.2708 59.3428 60.4749 59.5789C59.6356 59.8298 49.9111 59.8298 49.0718 59.5789C48.2758 59.3428 47.0748 58.1179 46.8432 57.3063C46.7419 56.9521 46.6696 55.8305 46.6696 54.6795V52.6725H54.7733H62.8771V54.6795Z" fill="#B52852"/>
<path d="M23.5159 38.5058V39.6863H36.2504H48.9849V38.5058V37.3252H36.2504H23.5159V38.5058Z" fill="#B52852"/>
<path d="M23.5159 43.228V44.4085H36.2504H48.9849V43.228V42.0474H36.2504H23.5159V43.228Z" fill="#B52852"/>
</svg>
